# xmcd
#
# Track frame offsets: 
#        150
#        16701
#        33272
#        50651
#        66320
#        82630
#        102223
#        119532
#        140940
#        156304
#        169089
#        184299
#        198823
#        213205
#        228146
#        245186
#        264090
#        280125
#        294896
#        308931
#
# Disc length: 4273 seconds
#
# Revision: 0
# Processed by: cddbd v1.5.2PL0 Copyright (c) Steve Scherf et al.
# Submitted via: ExactAudioCopy v0.99pb4
#
DISCID=1610af14
DTITLE=Ana Gabriel - Rancheras 20 Exitos
DYEAR=1900
DGENRE=Ranchera
TTITLE0=Con un Mismo Corazon
TTITLE1=Amigo Mio
TTITLE2=A Pesar de Todo
TTITLE3=Hechizo
TTITLE4=Guitarra Mia 
TTITLE5=Como Olvidar
TTITLE6=El Cigarrillo
TTITLE7=Mi Talisman
TTITLE8=Mirales, Escuchales
TTITLE9=Te Descubri
TTITLE10=Ahora
TTITLE11=Mi amigo
TTITLE12=Parece Que Fue Ayer
TTITLE13=Oye
TTITLE14=No Entiendo
TTITLE15=Como Agua Para Chocolate
TTITLE16=Paz en Este Amor
TTITLE17=No Tengo Dinero
TTITLE18=Dos Locos De Amor
TTITLE19=Silverio Perez
EXTD=
EXTT0=
EXTT1=
EXTT2=
EXTT3=
EXTT4=
EXTT5=
EXTT6=
EXTT7=
EXTT8=
EXTT9=
EXTT10=
EXTT11=
EXTT12=
EXTT13=
EXTT14=
EXTT15=
EXTT16=
EXTT17=
EXTT18=
EXTT19=
PLAYORDER=
